<svg xmlns="http://www.w3.org/2000/svg" version="1.1" xmlns:xlink="http://www.w3.org/1999/xlink" xmlns:svgjs="http://svgjs.com/svgjs" id="Pattern944SvgRootPreview" width="100%" height="100%"><defs><pattern x="0" y="0" width="1" height="1" patternUnits="userSpaceOnUse" id="Pattern944Layer1"><g id="PatternRootContent1"><g id="Pattern944Layer1background"><rect width="1" height="1" id="Pattern944Background1" class="fill_color_1" fill="#555c57"></rect></g></g></pattern><pattern x="0" y="0" width="79.88059701492537" height="138.98507462686567" patternUnits="userSpaceOnUse" id="Pattern944Layer2" patternTransform="matrix(0.6,0,0,0.6,0,0)" viewBox="0 0 79.88059701492537 138.98507462686567" preserveAspectRatio="xMidYMid slice"><g id="PatternRootContent2" transform="scale(0.3582089552238806) rotate(0)"><g id="Pattern944Layer2Element3"><use xlink:href="#Pattern944Element3" x="105.29031372070312" y="-206.8514404296875" transform="translate(223, -97) scale(1) translate(-223, 97) rotate(90, 223, -97)"></use><use xlink:href="#Pattern944Element3" x="-117.70968627929688" y="-206.8514404296875" transform="translate(0, -97) scale(1) translate(0, 97) rotate(90, 0, -97)"></use><use xlink:href="#Pattern944Element3" x="-6.209686279296875" y="-12.8514404296875" transform="translate(111.5, 97) scale(1) translate(-111.5, -97) rotate(90, 111.5, 97)"></use><use xlink:href="#Pattern944Element3" x="-229.20968627929688" y="-12.8514404296875" transform="translate(-111.5, 97) scale(1) translate(111.5, -97) rotate(90, -111.5, 97)"></use><use xlink:href="#Pattern944Element3" x="216.79031372070312" y="-12.8514404296875" transform="translate(334.5, 97) scale(1) translate(-334.5, -97) rotate(90, 334.5, 97)"></use><use xlink:href="#Pattern944Element3" x="105.29031372070312" y="181.1485595703125" transform="translate(223, 291) scale(1) translate(-223, -291) rotate(90, 223, 291)"></use><use xlink:href="#Pattern944Element3" x="-117.70968627929688" y="181.1485595703125" transform="translate(0, 291) scale(1) translate(0, -291) rotate(90, 0, 291)"></use><use xlink:href="#Pattern944Element3" x="-6.209686279296875" y="375.1485595703125" transform="translate(111.5, 485) scale(1) translate(-111.5, -485) rotate(90, 111.5, 485)"></use><use xlink:href="#Pattern944Element3" x="-6.209686279296875" y="375.1485595703125" transform="translate(111.5, 485) scale(1) translate(-111.5, -485) rotate(90, 111.5, 485)"></use></g></g></pattern><symbol id="Pattern944Element3"><g class="fill_color_4" fill="#050201"><g transform="matrix(1,0,0,1,0,0)"><path d="M131.767,168.66372680664062C137.014,162.116,137.014,152.753,131.767,146.20602416992188L134.681,143.29273986816406l-2.829,-2.828l-2.913,2.913C122.391,138.131,113.029,138.131,106.481,143.37759399414062L103.568,140.4643096923828l-2.828,2.828l2.913,2.913c-5.247,6.548,-5.247,15.91,0,22.458L100.74,171.57701110839844l2.828,2.828l2.913,-2.913c6.548,5.247,15.91,5.247,22.458,0L131.852,174.4054412841797l2.829,-2.828l-2.913,-2.913ZM107.811,167.33436584472656c-5.466,-5.466,-5.466,-14.333,0,-19.799s14.333,-5.466,19.799,0s5.466,14.333,0,19.799s-14.333,5.466,-19.799,0Z"></path><path d="M124.34,204.49441528320312C127.387,212.312,135.495,216.993,143.789,215.72328186035156L144.855,219.70289611816406l3.864,-1.035l-1.066,-3.98C155.47,211.64,160.151,203.533,158.881,195.23904418945312L162.861,194.17271423339844l-1.036,-3.864l-3.98,1.066c-3.047,-7.818,-11.155,-12.499,-19.449,-11.229L137.331,176.1668701171875l-3.864,1.035l1.066,3.98c-7.818,3.047,-12.499,11.155,-11.229,19.449L119.325,201.69705200195312l1.035,3.864l3.98,-1.066ZM137.469,184.4119110107422c7.467,-2.001,15.146,2.433,17.147,9.899s-2.433,15.146,-9.899,17.146s-15.146,-2.433,-17.146,-9.899s2.433,-15.146,9.899,-17.146Z"></path><path d="M97.023,180.146484375C88.729,178.876,80.621,183.557,77.574,191.37533569335938L73.595,190.3090057373047l-1.036,3.864l3.98,1.066C75.269,203.533,79.95,211.64,87.768,214.68800354003906L86.702,218.66761779785156l3.863,1.035l1.066,-3.98c8.294,1.27,16.402,-3.411,19.449,-11.229L115.06,205.56076049804688l1.035,-3.864l-3.98,-1.066c1.27,-8.294,-3.411,-16.402,-11.229,-19.449L101.953,177.2021484375l-3.863,-1.035l-1.066,3.98ZM107.85,201.558349609375c-2,7.467,-9.679,11.9,-17.146,9.899s-11.9,-9.68,-9.899,-17.146s9.68,-11.9,17.146,-9.899s11.9,9.68,9.899,17.146Z"></path></g><g transform="matrix(1,0,0,1,0,0)"><path d="M73.805,151.43124389648438C82.099,152.702,90.207,148.02,93.254,140.202392578125L97.234,141.26934814453125l1.035,-3.864l-3.979,-1.066C95.559,128.045,90.878,119.937,83.061,116.88985443115234L84.127,112.91048431396484l-3.863,-1.035l-1.066,3.979c-8.294,-1.27,-16.402,3.411,-19.449,11.229L55.769,126.01770782470703l-1.035,3.863l3.979,1.066c-1.27,8.294,3.411,16.402,11.229,19.449L68.875,154.37571716308594l3.864,1.036l1.066,-3.979ZM62.978,130.0200653076172c2.001,-7.467,9.68,-11.9,17.147,-9.9s11.9,9.68,9.899,17.146s-9.68,11.9,-17.146,9.899s-11.9,-9.68,-9.9,-17.146Z"></path><path d="M39.061,162.91461181640625C33.814,169.462,33.815,178.825,39.061,185.37237548828125L36.148,188.28536987304688l2.828,2.829l2.914,-2.913C48.438,193.447,57.799,193.447,64.347,188.2003173828125L67.261,191.11392211914062l2.828,-2.829l-2.913,-2.914c5.247,-6.548,5.247,-15.91,0,-22.458L70.089,160.00137329101562l-2.828,-2.829l-2.914,2.913c-6.548,-5.247,-15.91,-5.247,-22.458,0L38.977,157.1728057861328l-2.829,2.828l2.913,2.914ZM63.018,164.243408203125c5.466,5.466,5.466,14.333,0.001,19.799s-14.333,5.466,-19.798,0s-5.466,-14.333,0,-19.798s14.333,-5.466,19.798,0Z"></path><path d="M46.489,127.08342742919922C43.442,119.266,35.334,114.584,27.04,115.85453033447266L25.974,111.87545013427734l-3.864,1.035l1.067,3.98C15.358,119.937,10.678,128.045,11.948,136.33912658691406L7.968,137.40574645996094l1.035,3.863l3.98,-1.067c3.047,7.818,11.155,12.499,19.449,11.229L33.498,155.41107177734375l3.864,-1.036l-1.067,-3.98c7.818,-3.047,12.499,-11.155,11.229,-19.449L51.504,129.88076782226562l-1.035,-3.863l-3.98,1.067ZM33.359,147.1658172607422c-7.466,2.001,-15.145,-2.432,-17.146,-9.899s2.433,-15.146,9.899,-17.146s15.146,2.433,17.146,9.899s-2.433,15.146,-9.899,17.146Z"></path></g><g transform="matrix(1,0,0,1,0,0)"><path d="M59.748,92.61895751953125C62.795,100.437,70.904,105.118,79.197,103.84781646728516L80.263,107.82804870605469l3.864,-1.036l-1.066,-3.979C90.878,99.765,95.559,91.658,94.29,83.36370849609375L98.269,82.29761505126953l-1.035,-3.863l-3.979,1.066c-3.047,-7.818,-11.155,-12.499,-19.449,-11.229L72.739,64.29214477539062l-3.863,1.035l1.066,3.979c-7.818,3.047,-12.499,11.155,-11.229,19.449L54.733,89.82171630859375l1.035,3.864l3.979,-1.066ZM72.878,72.5371322631836c7.466,-2.001,15.145,2.433,17.146,9.899s-2.433,15.146,-9.899,17.146s-15.146,-2.433,-17.146,-9.899s2.433,-15.146,9.899,-17.146Z"></path><path d="M32.431,68.27164459228516C24.137,67.001,16.03,71.683,12.983,79.50054168701172L9.003,78.43392181396484l-1.036,3.864l3.98,1.067C10.678,91.658,15.358,99.765,23.176,102.81271362304688L22.11,106.79265594482422l3.864,1.035l1.067,-3.98c8.294,1.27,16.402,-3.411,19.449,-11.229L50.468,93.68595123291016l1.036,-3.864l-3.98,-1.067c1.27,-8.294,-3.411,-16.402,-11.229,-19.449L37.362,65.32720947265625l-3.864,-1.036l-1.067,3.98ZM43.259,89.68293762207031c-2.001,7.467,-9.68,11.9,-17.146,9.9s-11.9,-9.68,-9.899,-17.146s9.68,-11.9,17.146,-9.899s11.9,9.68,9.899,17.146Z"></path><path d="M67.176,56.78839111328125C72.423,50.241,72.423,40.878,67.176,34.33063507080078L70.089,31.417884826660156l-2.828,-2.829l-2.913,2.914C57.799,26.255,48.438,26.256,41.89,31.5025691986084L38.976,28.58957862854004l-2.828,2.828l2.914,2.913c-5.247,6.548,-5.247,15.91,0,22.458L36.148,59.70175552368164l2.829,2.828l2.913,-2.914c6.548,5.247,15.91,5.247,22.458,0L67.261,62.530067443847656l2.828,-2.828l-2.914,-2.913ZM43.219,55.45891571044922c-5.466,-5.466,-5.466,-14.332,0,-19.798s14.333,-5.466,19.798,0s5.466,14.333,0,19.798s-14.333,5.466,-19.798,0Z"></path></g><g transform="matrix(1,0,0,1,0,0)"><path d="M103.653,51.03915023803711C98.406,57.587,98.406,66.95,103.653,73.49686431884766L100.739,76.41014862060547l2.829,2.828l2.913,-2.913C113.029,81.572,122.391,81.572,128.939,76.3252944946289L131.852,79.23857116699219l2.828,-2.828l-2.913,-2.913c5.247,-6.548,5.247,-15.91,0,-22.458L134.68,48.12586975097656l-2.828,-2.828l-2.913,2.913c-6.548,-5.247,-15.91,-5.247,-22.458,0L103.568,45.29744338989258l-2.829,2.828l2.913,2.913ZM127.609,52.36851119995117c5.466,5.466,5.466,14.333,0,19.799s-14.333,5.466,-19.799,0s-5.466,-14.333,0,-19.799s14.333,-5.466,19.799,0Z"></path><path d="M111.08,15.208465576171875C108.033,7.391,99.925,2.71,91.631,3.9796066284179688L90.565,-0.000007629393621755298l-3.864,1.035l1.066,3.98C79.95,8.063,75.269,16.17,76.539,24.463836669921875L72.559,25.530170440673828l1.036,3.864l3.98,-1.066c3.047,7.818,11.155,12.499,19.449,11.229L98.089,43.5360107421875l3.864,-1.035l-1.066,-3.98c7.818,-3.047,12.499,-11.155,11.229,-19.449L116.095,18.005836486816406l-1.035,-3.864l-3.98,1.066ZM97.951,35.29096603393555c-7.467,2.001,-15.146,-2.433,-17.147,-9.899s2.433,-15.146,9.899,-17.146s15.146,2.433,17.146,9.899s-2.433,15.146,-9.899,17.146Z"></path><path d="M138.397,39.556396484375C146.691,40.827,154.799,36.146,157.846,28.32754135131836L161.825,29.393875122070312l1.036,-3.864l-3.98,-1.066C160.151,16.17,155.47,8.063,147.652,5.014884948730469L148.718,1.0352706909179688l-3.863,-1.035l-1.066,3.98c-8.294,-1.27,-16.402,3.411,-19.449,11.229L120.36,14.142127990722656l-1.035,3.864l3.98,1.066c-1.27,8.294,3.411,16.402,11.229,19.449L133.467,42.500736236572266l3.863,1.035l1.066,-3.98ZM127.57,18.14453125c2,-7.467,9.679,-11.9,17.146,-9.899s11.9,9.68,9.899,17.146s-9.68,11.9,-17.146,9.899s-11.9,-9.68,-9.899,-17.146Z"></path></g><g transform="matrix(1,0,0,1,0,0)"><path d="M161.614,68.27163696289062C153.32,67.001,145.212,71.683,142.165,79.50049591064453L138.185,78.43354034423828l-1.034,3.864l3.979,1.066C139.86,91.658,144.541,99.765,152.359,102.81303405761719L151.292,106.79240417480469l3.863,1.035l1.066,-3.979c8.294,1.27,16.402,-3.411,19.449,-11.229L179.651,93.68517303466797l1.035,-3.863l-3.979,-1.066c1.27,-8.294,-3.411,-16.402,-11.229,-19.449L166.544,65.3271713256836l-3.863,-1.036l-1.066,3.979ZM172.441,89.68282318115234c-2.001,7.467,-9.68,11.9,-17.147,9.9s-11.9,-9.68,-9.9,-17.146s9.68,-11.9,17.146,-9.9s11.9,9.68,9.9,17.146Z"></path><path d="M196.358,56.78826904296875C201.605,50.241,201.605,40.878,196.358,34.33051300048828L199.271,31.417518615722656l-2.828,-2.829l-2.914,2.913C186.982,26.256,177.62,26.256,171.072,31.502567291259766L168.159,28.588956832885742l-2.829,2.829l2.913,2.914c-5.247,6.548,-5.247,15.91,0,22.458L165.33,59.701507568359375l2.828,2.829l2.914,-2.913c6.548,5.247,15.91,5.247,22.458,0L196.443,62.53007125854492l2.829,-2.828l-2.913,-2.914ZM172.401,55.45947265625c-5.466,-5.466,-5.465,-14.333,0,-19.799s14.333,-5.466,19.798,0s5.466,14.333,0,19.798s-14.333,5.466,-19.798,0Z"></path><path d="M188.931,92.61945343017578C191.978,100.437,200.085,105.119,208.379,103.84835052490234L209.446,107.82743835449219l3.864,-1.035l-1.067,-3.98C220.061,99.766,224.742,91.658,223.472,83.36376190185547L227.451,82.29713439941406l-1.035,-3.863l-3.98,1.067c-3.047,-7.818,-11.155,-12.499,-19.449,-11.229L201.921,64.29181671142578l-3.863,1.036l1.067,3.98c-7.818,3.047,-12.499,11.155,-11.229,19.449L183.916,89.8221206665039l1.035,3.863l3.98,-1.067ZM202.06,72.53706359863281c7.467,-2.001,15.145,2.432,17.146,9.899s-2.433,15.146,-9.899,17.146s-15.146,-2.433,-17.146,-9.899s2.433,-15.146,9.899,-17.146Z"></path></g><g transform="matrix(1,0,0,1,0,0)"><path d="M175.671,127.08393096923828C172.624,119.266,164.516,114.585,156.222,115.85507202148438L155.156,111.87483978271484l-3.863,1.036l1.066,3.979C144.541,119.938,139.86,128.045,141.13,136.3391876220703L137.15,137.4052734375l1.035,3.863l3.979,-1.066c3.047,7.818,11.155,12.499,19.449,11.229L162.681,155.41075134277344l3.863,-1.035l-1.066,-3.979c7.818,-3.047,12.499,-11.155,11.229,-19.449L180.686,129.88116455078125l-1.035,-3.864l-3.979,1.066ZM162.542,147.16575622558594c-7.467,2.001,-15.146,-2.433,-17.147,-9.9s2.433,-15.146,9.899,-17.146s15.146,2.433,17.146,9.899s-2.433,15.146,-9.899,17.146Z"></path><path d="M202.988,151.43124389648438C211.282,152.701,219.39,148.02,222.437,140.2023468017578L226.416,141.2689666748047l1.036,-3.864l-3.98,-1.067C224.741,128.045,220.061,119.937,212.243,116.89017486572266L213.31,112.91023254394531l-3.865,-1.035l-1.067,3.98c-8.294,-1.27,-16.402,3.411,-19.449,11.229L184.951,126.01693725585938l-1.036,3.864l3.98,1.067c-1.27,8.294,3.411,16.402,11.229,19.449L198.058,154.37567138671875l3.864,1.036l1.067,-3.98ZM192.16,130.0199432373047c2.001,-7.467,9.68,-11.9,17.147,-9.9s11.9,9.68,9.899,17.146s-9.68,11.9,-17.146,9.899s-11.9,-9.68,-9.899,-17.146Z"></path><path d="M168.243,162.91448974609375C162.996,169.462,162.996,178.824,168.243,185.37225341796875L165.33,188.28500366210938l2.829,2.829l2.913,-2.914C177.62,193.447,186.981,193.447,193.53,188.2003173828125L196.443,191.11331176757812l2.828,-2.828l-2.914,-2.913c5.247,-6.548,5.247,-15.91,0,-22.458L199.271,160.00112915039062l-2.828,-2.828l-2.913,2.914c-6.548,-5.247,-15.91,-5.247,-22.458,0L168.159,157.17282104492188l-2.828,2.828l2.914,2.913ZM192.2,164.2439727783203c5.467,5.466,5.466,14.332,0,19.798s-14.333,5.466,-19.798,0s-5.466,-14.333,0,-19.798s14.333,-5.466,19.798,0Z"></path></g></g></symbol></defs><rect width="100%" height="100%" id="Pattern944RctLayer1" fill="url(#Pattern944Layer1)"></rect><rect width="100%" height="100%" id="Pattern944RctLayer2" fill="url(#Pattern944Layer2)"></rect></svg>